<svg width="138" height="47" viewBox="0 0 138 47" fill="none" xmlns="http://www.w3.org/2000/svg">
<g id="TCH-&#208;&#159;&#209;&#128;&#208;&#184;&#208;&#189;&#209;&#130;">
<path d="M7.81368 3.80539V46.1695H4.46496V3.80539H0V0.830538H12.2786V3.80539H7.81368Z" fill="#FF7F00"/>
<path d="M36.7505 46.5C30.053 46.5 24.4532 44.4249 19.951 40.2748C15.4861 36.1615 13.2536 30.579 13.2536 23.5275C13.2536 18.7898 14.314 14.6214 16.4349 11.0222C18.5557 7.49641 21.3836 4.85209 24.9183 3.08922C28.4903 1.36307 32.4343 0.5 36.7505 0.5V3.69521C31.0576 3.69521 26.3136 5.51317 22.5184 9.1491C18.686 12.785 16.7698 17.5962 16.7698 23.5826C16.7698 29.6792 18.6674 34.4904 22.4626 38.0162C26.1834 41.5419 30.946 43.3048 36.7505 43.3048V46.5Z" fill="#FF7F00"/>
<path d="M50.2733 0.830538V46.1695H46.9246V33.9395H42.4596V46.1695H39.1109V33.9395H36.8784L38.3854 31.0198H39.1109V0.830538H42.4596V31.0198H46.9246V0.830538H50.2733Z" fill="#FF7F00"/>
<path d="M61.5582 31.0198V33.8293H55.4189V31.0198H61.5582Z" fill="white"/>
<path d="M76.3951 0.830538V46.1695H73.0464L73.1022 3.7503H68.6372L68.5814 46.1695H65.2327V0.830538H76.3951Z" fill="white"/>
<path d="M80.3294 25.621H83.5665V26.888C84.6455 25.9331 85.9292 25.4557 87.4175 25.4557C89.3523 25.4557 91.0267 26.1168 92.4406 27.4389C93.7801 28.8345 94.4498 30.5423 94.4498 32.5623C94.4498 34.5822 93.7801 36.2717 92.4406 37.6305C91.0639 38.9894 89.3895 39.6689 87.4175 39.6689C86.7106 39.6689 85.9664 39.5036 85.185 39.1731C84.4037 38.916 83.8642 38.5671 83.5665 38.1263V46.1695H80.3294V25.621ZM87.3059 28.5407C86.1525 28.5407 85.2037 28.908 84.4595 29.6425C83.7153 30.4505 83.3432 31.4238 83.3432 32.5623C83.3432 33.7743 83.7153 34.7475 84.4595 35.482C85.2037 36.2166 86.1525 36.5838 87.3059 36.5838C88.4593 36.5838 89.3895 36.1798 90.0965 35.3719C90.8035 34.6373 91.1569 33.7008 91.1569 32.5623C91.1569 31.4605 90.8035 30.5056 90.0965 29.6976C89.3523 28.9263 88.4221 28.5407 87.3059 28.5407Z" fill="white"/>
<path d="M100.893 33.6641L105.693 25.621H105.804L105.86 25.5659L105.916 25.621H108.93V39.3934H105.693V31.1299L100.893 39.3934H97.6558V25.621H100.893V33.6641Z" fill="white"/>
<path d="M115.567 30.7443H120.367V25.621H123.604V39.3934H120.367V33.5539H115.567V39.3934H112.33V25.621H115.567V30.7443Z" fill="white"/>
<path d="M130.577 28.5407H126.335V25.5659L138 25.621V28.5958H133.814V39.3934H130.577V28.5407Z" fill="white"/>
</g>
</svg>
